<svg xmlns="http://www.w3.org/2000/svg" width="18" height="18" viewBox="0 0 48 48">
  <path fill="#EA4335" d="M24 9.5c3.54 0 6.68 1.22 9.18 3.59l6.85-6.85C35.9 2.43 30.3 0 24 0 14.63 0 6.4 5.49 2.53 13.5l7.97 6.18C12.25 13.09 17.68 9.5 24 9.5z"></path>
  <path fill="#4285F4" d="M46.5 24.5c0-1.64-.15-3.21-.42-4.71H24v9.26h12.65c-.55 2.99-2.19 5.51-4.65 7.21l7.18 5.59C43.21 37.28 46.5 31.4 46.5 24.5z"></path>
  <path fill="#FBBC05" d="M10.5 28.68c-1.05-3.06-1.05-6.3 0-9.36L2.53 13.5c-3.39 6.69-3.39 14.81 0 21.5l7.97-6.32z"></path>
  <path fill="#34A853" d="M24 48c6.3 0 11.9-2.08 15.87-5.66l-7.18-5.59c-2.01 1.34-4.6 2.15-7.47 2.15-6.32 0-11.75-3.59-14.5-9.18l-7.97 6.32C6.4 42.51 14.63 48 24 48z"></path>
  <path fill="none" d="M0 0h48v48H0z"></path>
</svg>
